<svg xmlns="http://www.w3.org/2000/svg" xmlns:xlink="http://www.w3.org/1999/xlink" width="798" zoomAndPan="magnify" viewBox="0 0 598.5 471.749986" height="629" preserveAspectRatio="xMidYMid meet" version="1.0"><defs><g/><clipPath id="f536e67601"><path d="M 149.527344 37 L 448.527344 37 L 448.527344 273 L 149.527344 273 Z M 149.527344 37 " clip-rule="nonzero"/></clipPath><clipPath id="c787dd1710"><path d="M 161 0.53125 L 391 0.53125 L 391 99 L 161 99 Z M 161 0.53125 " clip-rule="nonzero"/></clipPath></defs><path fill="#ffffff" d="M 394.289062 114.992188 C 376.421875 123.8125 354.410156 131.824219 328.667969 139.210938 L 328.667969 148.023438 C 328.667969 150.464844 328.636719 152.832031 328.570312 155.128906 L 332.882812 153.890625 C 353.539062 147.960938 374.570312 140.972656 394.21875 131.941406 C 394.25 126.710938 394.277344 121.054688 394.289062 114.992188 Z M 394.289062 114.992188 " fill-opacity="1" fill-rule="evenodd"/><g clip-path="url(#f536e67601)"><path fill="#ffffff" d="M 394.289062 114.992188 C 436.257812 94.277344 455.347656 69.101562 446.171875 37.058594 C 446.054688 50.625 427.703125 64.191406 392.816406 77.734375 C 375.453125 84.472656 353.996094 91.207031 328.652344 97.929688 C 328.65625 98.042969 328.664062 98.160156 328.667969 98.273438 C 314.621094 102.371094 301.578125 105.800781 289.621094 108.726562 C 277.582031 111.570312 263.199219 114.664062 246.394531 118.175781 C 229.503906 121.601562 218.96875 123.777344 214.789062 124.78125 C 194.472656 129.128906 178.585938 137.824219 166.964844 150.699219 C 155.339844 163.660156 149.570312 179.210938 149.570312 197.523438 C 149.570312 211.070312 153.082031 223.609375 160.105469 235.230469 C 167.128906 246.851562 177.164062 255.96875 190.125 262.742188 C 203.085938 269.511719 218.132812 272.941406 235.359375 272.941406 C 254.089844 272.941406 271.0625 269.765625 286.195312 263.492188 C 301.246094 257.222656 316.878906 247.773438 333.101562 235.230469 C 340.625 247.523438 347.648438 256.804688 354.421875 263.242188 C 361.109375 269.679688 367.882812 272.941406 374.738281 272.941406 C 382.847656 272.941406 390.207031 270.097656 396.644531 264.496094 C 403.085938 258.894531 406.261719 252.625 406.261719 245.765625 C 406.261719 241.835938 404.253906 233.058594 400.074219 219.429688 C 395.890625 205.800781 393.804688 192.671875 393.804688 180.132812 C 393.96875 166.753906 394.054688 154.546875 394.136719 143.59375 C 394.164062 139.984375 394.191406 136.097656 394.21875 131.941406 C 374.570312 140.976562 353.539062 147.960938 332.882812 153.890625 L 328.570312 155.128906 C 328.003906 174.691406 325.027344 188.972656 319.640625 198.023438 C 314.371094 207.136719 306.175781 214.664062 294.972656 220.433594 C 283.769531 226.203125 271.5625 229.128906 258.351562 229.128906 C 245.976562 229.128906 235.945312 225.617188 228.25 218.507812 C 220.558594 211.402344 216.710938 202.789062 216.710938 192.589844 C 216.710938 182.808594 219.972656 175.199219 226.496094 169.765625 C 233.019531 164.246094 239.875 160.566406 247.066406 158.726562 C 254.253906 156.804688 267.214844 153.878906 285.945312 149.863281 C 304.589844 145.851562 318.886719 142.089844 328.671875 138.492188 L 328.671875 139.214844 C 354.414062 131.828125 376.425781 123.816406 394.292969 114.996094 Z M 394.289062 114.992188 " fill-opacity="1" fill-rule="evenodd"/></g><g clip-path="url(#c787dd1710)"><path fill="#ffffff" d="M 327.003906 82.5625 C 347.265625 77.148438 367.753906 71.082031 387.289062 63.496094 L 390.101562 62.40625 C 388.480469 55.578125 386.398438 49.414062 383.851562 43.925781 C 376.910156 28.875 365.039062 17.921875 348.234375 10.980469 C 331.429688 4.042969 308.351562 0.53125 278.917969 0.53125 C 252.582031 0.53125 230.675781 4.128906 213.035156 11.320312 C 195.390625 18.507812 182.429688 27.625 174.070312 38.742188 C 165.707031 49.863281 161.609375 61.320312 161.609375 73.023438 C 161.609375 80.546875 164.285156 86.738281 169.804688 91.503906 C 175.238281 96.351562 181.761719 98.777344 189.285156 98.777344 C 197.566406 98.777344 203 97.273438 205.589844 94.261719 C 208.097656 91.253906 212.445312 84.980469 218.550781 75.53125 C 224.652344 66 232.011719 58.976562 240.625 54.210938 C 249.152344 49.445312 261.945312 47.105469 278.917969 47.105469 C 298.734375 47.105469 311.695312 51.199219 318.046875 59.480469 C 322.28125 65.011719 325.257812 72.714844 327.003906 82.566406 Z M 327.003906 82.5625 " fill-opacity="1" fill-rule="evenodd"/></g><g fill="#ffffff" fill-opacity="1"><g transform="translate(63.784792, 394.474958)"><g><path d="M 49.980469 -65.421875 L 49.980469 -81.777344 L 9.148438 -81.777344 L 9.148438 0 L 25.503906 0 L 25.503906 -32.710938 L 46.320312 -32.710938 L 46.320312 -49.066406 L 25.503906 -49.066406 L 25.503906 -65.421875 Z M 49.980469 -65.421875 "/></g></g></g><g fill="#ffffff" fill-opacity="1"><g transform="translate(118.109424, 394.474958)"><g><path d="M 29.164062 0 L 45.40625 0 L 45.40625 -36.828125 L 74 -81.777344 L 53.984375 -81.777344 L 37.285156 -53.640625 L 20.585938 -81.777344 L 0.6875 -81.777344 L 29.164062 -36.828125 Z M 29.164062 0 "/></g></g></g><g fill="#ffffff" fill-opacity="1"><g transform="translate(192.334043, 394.474958)"><g><path d="M 46.664062 -47.121094 L 14.410156 -83.035156 L 9.148438 -83.035156 L 9.148438 0 L 25.734375 0 L 25.734375 -45.636719 L 46.664062 -23.675781 L 67.59375 -45.636719 L 67.480469 0 L 84.066406 0 L 84.066406 -83.035156 L 78.917969 -83.035156 Z M 46.664062 -47.121094 "/></g></g></g><g fill="#ffffff" fill-opacity="1"><g transform="translate(285.658069, 394.474958)"><g><path d="M 46.664062 -47.121094 L 14.410156 -83.035156 L 9.148438 -83.035156 L 9.148438 0 L 25.734375 0 L 25.734375 -45.636719 L 46.664062 -23.675781 L 67.59375 -45.636719 L 67.480469 0 L 84.066406 0 L 84.066406 -83.035156 L 78.917969 -83.035156 Z M 46.664062 -47.121094 "/></g></g></g><g fill="#ffffff" fill-opacity="1"><g transform="translate(378.982095, 394.474958)"><g><path d="M 1.828125 0 L 20.359375 0 L 23.5625 -8.808594 L 50.667969 -8.808594 L 53.984375 0 L 72.398438 0 L 37.972656 -84.75 L 36.257812 -84.75 Z M 29.507812 -24.132812 L 37.171875 -45.40625 L 44.605469 -24.132812 Z M 29.507812 -24.132812 "/></g></g></g><g fill="#ffffff" fill-opacity="1"><g transform="translate(453.664182, 394.474958)"><g><path d="M 25.503906 -44.492188 L 66.910156 1.714844 L 71.253906 1.714844 L 71.253906 -81.664062 L 54.785156 -81.664062 L 54.785156 -35.457031 L 13.496094 -83.492188 L 9.148438 -83.492188 L 9.148438 0 L 25.503906 0 Z M 25.503906 -44.492188 "/></g></g></g><g fill="#ffffff" fill-opacity="1"><g transform="translate(165.763459, 455.369811)"><g><path d="M 10.59375 0.28125 C 8.800781 0.28125 7.222656 -0.0664062 5.859375 -0.765625 C 4.503906 -1.472656 3.457031 -2.457031 2.71875 -3.71875 C 1.988281 -4.988281 1.625 -6.453125 1.625 -8.109375 L 1.625 -16.09375 C 1.625 -17.75 1.988281 -19.207031 2.71875 -20.46875 C 3.457031 -21.738281 4.503906 -22.71875 5.859375 -23.40625 C 7.222656 -24.101562 8.800781 -24.453125 10.59375 -24.453125 C 12.375 -24.453125 13.9375 -24.125 15.28125 -23.46875 C 16.625 -22.8125 17.671875 -21.878906 18.421875 -20.671875 C 19.171875 -19.460938 19.546875 -18.0625 19.546875 -16.46875 C 19.546875 -16.257812 19.363281 -16.132812 19 -16.09375 L 15.296875 -15.84375 L 15.15625 -15.84375 C 14.832031 -15.84375 14.671875 -15.898438 14.671875 -16.015625 L 14.671875 -16.234375 C 14.671875 -17.453125 14.296875 -18.425781 13.546875 -19.15625 C 12.804688 -19.894531 11.820312 -20.265625 10.59375 -20.265625 C 9.351562 -20.265625 8.359375 -19.894531 7.609375 -19.15625 C 6.859375 -18.425781 6.484375 -17.453125 6.484375 -16.234375 L 6.484375 -7.90625 C 6.484375 -6.707031 6.859375 -5.738281 7.609375 -5 C 8.359375 -4.269531 9.351562 -3.90625 10.59375 -3.90625 C 11.820312 -3.90625 12.804688 -4.269531 13.546875 -5 C 14.296875 -5.738281 14.671875 -6.707031 14.671875 -7.90625 C 14.671875 -8.019531 14.722656 -8.117188 14.828125 -8.203125 C 14.929688 -8.285156 15.078125 -8.3125 15.265625 -8.28125 L 18.953125 -8.109375 C 19.347656 -8.066406 19.546875 -8.007812 19.546875 -7.9375 L 19.546875 -7.765625 C 19.546875 -6.179688 19.171875 -4.78125 18.421875 -3.5625 C 17.671875 -2.34375 16.625 -1.394531 15.28125 -0.71875 C 13.9375 -0.0507812 12.375 0.28125 10.59375 0.28125 Z M 10.59375 0.28125 "/></g></g></g><g fill="#ffffff" fill-opacity="1"><g transform="translate(202.289395, 455.369811)"><g><path d="M 15.5 0 C 15.207031 0 14.976562 -0.148438 14.8125 -0.453125 L 10.5625 -9.84375 C 10.519531 -9.957031 10.441406 -10.015625 10.328125 -10.015625 L 7.1875 -10.015625 C 7.039062 -10.015625 6.96875 -9.945312 6.96875 -9.8125 L 6.96875 -0.59375 C 6.96875 -0.195312 6.773438 0 6.390625 0 L 2.6875 0 C 2.300781 0 2.109375 -0.195312 2.109375 -0.59375 L 2.109375 -23.625 C 2.109375 -24.007812 2.300781 -24.203125 2.6875 -24.203125 L 12.390625 -24.203125 C 13.867188 -24.203125 15.164062 -23.894531 16.28125 -23.28125 C 17.394531 -22.675781 18.253906 -21.820312 18.859375 -20.71875 C 19.472656 -19.613281 19.78125 -18.347656 19.78125 -16.921875 C 19.78125 -15.359375 19.390625 -14.007812 18.609375 -12.875 C 17.828125 -11.75 16.742188 -10.957031 15.359375 -10.5 C 15.296875 -10.476562 15.25 -10.4375 15.21875 -10.375 C 15.195312 -10.320312 15.210938 -10.269531 15.265625 -10.21875 L 19.828125 -0.6875 C 19.890625 -0.59375 19.921875 -0.488281 19.921875 -0.375 C 19.921875 -0.257812 19.875 -0.164062 19.78125 -0.09375 C 19.6875 -0.03125 19.5625 0 19.40625 0 Z M 7.1875 -20 C 7.039062 -20 6.96875 -19.925781 6.96875 -19.78125 L 6.96875 -13.984375 C 6.96875 -13.847656 7.039062 -13.78125 7.1875 -13.78125 L 11.671875 -13.78125 C 12.640625 -13.78125 13.425781 -14.0625 14.03125 -14.625 C 14.644531 -15.1875 14.953125 -15.925781 14.953125 -16.84375 C 14.953125 -17.769531 14.644531 -18.523438 14.03125 -19.109375 C 13.425781 -19.703125 12.640625 -20 11.671875 -20 Z M 7.1875 -20 "/></g></g></g><g fill="#ffffff" fill-opacity="1"><g transform="translate(239.022445, 455.369811)"><g><path d="M 18.890625 -20.578125 C 18.890625 -20.191406 18.691406 -20 18.296875 -20 L 7.1875 -20 C 7.039062 -20 6.96875 -19.925781 6.96875 -19.78125 L 6.96875 -14.5 C 6.96875 -14.363281 7.039062 -14.296875 7.1875 -14.296875 L 14.40625 -14.296875 C 14.789062 -14.296875 14.984375 -14.097656 14.984375 -13.703125 L 14.984375 -10.703125 C 14.984375 -10.316406 14.789062 -10.125 14.40625 -10.125 L 7.1875 -10.125 C 7.039062 -10.125 6.96875 -10.050781 6.96875 -9.90625 L 6.96875 -4.390625 C 6.96875 -4.242188 7.039062 -4.171875 7.1875 -4.171875 L 18.296875 -4.171875 C 18.691406 -4.171875 18.890625 -3.976562 18.890625 -3.59375 L 18.890625 -0.59375 C 18.890625 -0.195312 18.691406 0 18.296875 0 L 2.6875 0 C 2.300781 0 2.109375 -0.195312 2.109375 -0.59375 L 2.109375 -23.578125 C 2.109375 -23.972656 2.300781 -24.171875 2.6875 -24.171875 L 18.296875 -24.171875 C 18.691406 -24.171875 18.890625 -23.972656 18.890625 -23.578125 Z M 18.890625 -20.578125 "/></g></g></g><g fill="#ffffff" fill-opacity="1"><g transform="translate(274.719954, 455.369811)"><g><path d="M 17.640625 0 C 17.316406 0 17.097656 -0.160156 16.984375 -0.484375 L 16.015625 -3.6875 C 15.992188 -3.8125 15.925781 -3.875 15.8125 -3.875 L 7.359375 -3.875 C 7.242188 -3.875 7.171875 -3.8125 7.140625 -3.6875 L 6.1875 -0.484375 C 6.070312 -0.160156 5.851562 0 5.53125 0 L 1.515625 0 C 1.304688 0 1.15625 -0.0625 1.0625 -0.1875 C 0.976562 -0.3125 0.96875 -0.46875 1.03125 -0.65625 L 8.390625 -23.6875 C 8.503906 -24.007812 8.722656 -24.171875 9.046875 -24.171875 L 14.125 -24.171875 C 14.445312 -24.171875 14.664062 -24.007812 14.78125 -23.6875 L 22.140625 -0.65625 C 22.160156 -0.613281 22.171875 -0.546875 22.171875 -0.453125 C 22.171875 -0.304688 22.125 -0.191406 22.03125 -0.109375 C 21.9375 -0.0351562 21.8125 0 21.65625 0 Z M 8.359375 -7.875 C 8.335938 -7.707031 8.394531 -7.625 8.53125 -7.625 L 14.640625 -7.625 C 14.773438 -7.625 14.832031 -7.707031 14.8125 -7.875 L 11.703125 -18.40625 C 11.679688 -18.5 11.640625 -18.546875 11.578125 -18.546875 C 11.523438 -18.546875 11.476562 -18.5 11.4375 -18.40625 Z M 8.359375 -7.875 "/></g></g></g><g fill="#ffffff" fill-opacity="1"><g transform="translate(313.420516, 455.369811)"><g><path d="M 18.609375 -24.171875 C 19.003906 -24.171875 19.203125 -23.972656 19.203125 -23.578125 L 19.203125 -20.546875 C 19.203125 -20.148438 19.003906 -19.953125 18.609375 -19.953125 L 12.640625 -19.953125 C 12.503906 -19.953125 12.4375 -19.882812 12.4375 -19.75 L 12.4375 -0.59375 C 12.4375 -0.195312 12.238281 0 11.84375 0 L 8.15625 0 C 7.757812 0 7.5625 -0.195312 7.5625 -0.59375 L 7.5625 -19.75 C 7.5625 -19.882812 7.492188 -19.953125 7.359375 -19.953125 L 1.546875 -19.953125 C 1.160156 -19.953125 0.96875 -20.148438 0.96875 -20.546875 L 0.96875 -23.578125 C 0.96875 -23.972656 1.160156 -24.171875 1.546875 -24.171875 Z M 18.609375 -24.171875 "/></g></g></g><g fill="#ffffff" fill-opacity="1"><g transform="translate(349.152534, 455.369811)"><g><path d="M 2.6875 0 C 2.300781 0 2.109375 -0.195312 2.109375 -0.59375 L 2.109375 -23.578125 C 2.109375 -23.972656 2.300781 -24.171875 2.6875 -24.171875 L 6.390625 -24.171875 C 6.773438 -24.171875 6.96875 -23.972656 6.96875 -23.578125 L 6.96875 -0.59375 C 6.96875 -0.195312 6.773438 0 6.390625 0 Z M 2.6875 0 "/></g></g></g><g fill="#ffffff" fill-opacity="1"><g transform="translate(373.769746, 455.369811)"><g><path d="M 8.703125 0 C 8.378906 0 8.160156 -0.160156 8.046875 -0.484375 L 1.03125 -23.515625 C 1.007812 -23.554688 1 -23.625 1 -23.71875 C 1 -24.019531 1.171875 -24.171875 1.515625 -24.171875 L 5.53125 -24.171875 C 5.851562 -24.171875 6.070312 -24.007812 6.1875 -23.6875 L 10.703125 -7.046875 C 10.722656 -6.953125 10.769531 -6.90625 10.84375 -6.90625 C 10.914062 -6.90625 10.960938 -6.953125 10.984375 -7.046875 L 15.4375 -23.65625 C 15.550781 -24 15.769531 -24.171875 16.09375 -24.171875 L 20 -24.171875 C 20.195312 -24.171875 20.34375 -24.109375 20.4375 -23.984375 C 20.53125 -23.859375 20.546875 -23.703125 20.484375 -23.515625 L 13.359375 -0.484375 C 13.242188 -0.160156 13.023438 0 12.703125 0 Z M 8.703125 0 "/></g></g></g><g fill="#ffffff" fill-opacity="1"><g transform="translate(410.778934, 455.369811)"><g><path d="M 10.703125 0.375 C 8.910156 0.375 7.328125 0.0078125 5.953125 -0.71875 C 4.585938 -1.457031 3.523438 -2.488281 2.765625 -3.8125 C 2.003906 -5.132812 1.625 -6.660156 1.625 -8.390625 L 1.625 -15.78125 C 1.625 -17.488281 2.003906 -18.992188 2.765625 -20.296875 C 3.523438 -21.609375 4.585938 -22.628906 5.953125 -23.359375 C 7.328125 -24.085938 8.910156 -24.453125 10.703125 -24.453125 C 12.523438 -24.453125 14.117188 -24.085938 15.484375 -23.359375 C 16.859375 -22.628906 17.925781 -21.609375 18.6875 -20.296875 C 19.445312 -18.992188 19.828125 -17.488281 19.828125 -15.78125 L 19.828125 -8.390625 C 19.828125 -6.660156 19.445312 -5.128906 18.6875 -3.796875 C 17.925781 -2.460938 16.859375 -1.429688 15.484375 -0.703125 C 14.117188 0.015625 12.523438 0.375 10.703125 0.375 Z M 10.703125 -3.796875 C 11.972656 -3.796875 13 -4.195312 13.78125 -5 C 14.5625 -5.8125 14.953125 -6.882812 14.953125 -8.21875 L 14.953125 -15.8125 C 14.953125 -17.144531 14.566406 -18.21875 13.796875 -19.03125 C 13.023438 -19.851562 11.992188 -20.265625 10.703125 -20.265625 C 9.441406 -20.265625 8.421875 -19.851562 7.640625 -19.03125 C 6.867188 -18.21875 6.484375 -17.144531 6.484375 -15.8125 L 6.484375 -8.21875 C 6.484375 -6.882812 6.867188 -5.8125 7.640625 -5 C 8.421875 -4.195312 9.441406 -3.796875 10.703125 -3.796875 Z M 10.703125 -3.796875 "/></g></g></g><g fill="#ffffff" fill-opacity="1"><g transform="translate(348.498232, 188.339981)"><g><path d="M 4.5625 0.140625 C 3.664062 0.140625 2.914062 -0.148438 2.3125 -0.734375 C 1.71875 -1.328125 1.421875 -2.035156 1.421875 -2.859375 C 1.421875 -3.671875 1.738281 -4.367188 2.375 -4.953125 C 3.019531 -5.535156 3.75 -5.828125 4.5625 -5.828125 C 5.40625 -5.828125 6.148438 -5.535156 6.796875 -4.953125 C 7.441406 -4.367188 7.765625 -3.671875 7.765625 -2.859375 C 7.765625 -2.035156 7.453125 -1.328125 6.828125 -0.734375 C 6.210938 -0.148438 5.457031 0.140625 4.5625 0.140625 Z M 4.5625 0.140625 "/></g></g></g></svg>