<svg xmlns="http://www.w3.org/2000/svg" xmlns:xlink="http://www.w3.org/1999/xlink" width="394" zoomAndPan="magnify" viewBox="0 0 295.5 107.999999" height="144" preserveAspectRatio="xMidYMid meet" version="1.0"><defs><g/><clipPath id="6f904a5d74"><path d="M 104.667969 10 L 190.023438 10 L 190.023438 78.261719 L 104.667969 78.261719 Z M 104.667969 10 " clip-rule="nonzero"/></clipPath><clipPath id="790104ab51"><path d="M 108 0.394531 L 174 0.394531 L 174 29 L 108 29 Z M 108 0.394531 " clip-rule="nonzero"/></clipPath></defs><path fill="#9a2300" d="M 174.675781 33.132812 C 169.566406 35.65625 163.269531 37.945312 155.90625 40.058594 L 155.90625 42.578125 C 155.90625 43.277344 155.898438 43.957031 155.878906 44.613281 L 157.113281 44.257812 C 163.019531 42.5625 169.035156 40.5625 174.65625 37.980469 C 174.664062 36.484375 174.671875 34.867188 174.675781 33.132812 Z M 174.675781 33.132812 " fill-opacity="1" fill-rule="evenodd"/><g clip-path="url(#6f904a5d74)"><path fill="#ff6600" d="M 174.675781 33.132812 C 186.679688 27.207031 192.140625 20.007812 189.515625 10.84375 C 189.480469 14.722656 184.234375 18.601562 174.253906 22.476562 C 169.289062 24.402344 163.152344 26.328125 155.902344 28.25 C 155.90625 28.285156 155.90625 28.316406 155.90625 28.351562 C 151.890625 29.523438 148.160156 30.503906 144.738281 31.339844 C 141.296875 32.152344 137.183594 33.039062 132.375 34.042969 C 127.542969 35.023438 124.53125 35.644531 123.335938 35.933594 C 117.523438 37.175781 112.980469 39.664062 109.65625 43.34375 C 106.332031 47.050781 104.683594 51.5 104.683594 56.738281 C 104.683594 60.613281 105.6875 64.199219 107.695312 67.523438 C 109.703125 70.847656 112.574219 73.453125 116.28125 75.390625 C 119.988281 77.328125 124.292969 78.308594 129.21875 78.308594 C 134.574219 78.308594 139.429688 77.402344 143.757812 75.605469 C 148.0625 73.8125 152.535156 71.109375 157.175781 67.523438 C 159.328125 71.039062 161.335938 73.695312 163.273438 75.535156 C 165.1875 77.375 167.125 78.308594 169.085938 78.308594 C 171.402344 78.308594 173.507812 77.496094 175.351562 75.894531 C 177.191406 74.292969 178.101562 72.496094 178.101562 70.535156 C 178.101562 69.414062 177.527344 66.902344 176.332031 63.003906 C 175.132812 59.105469 174.539062 55.351562 174.539062 51.761719 C 174.585938 47.9375 174.609375 44.445312 174.632812 41.3125 C 174.640625 40.28125 174.648438 39.167969 174.65625 37.980469 C 169.035156 40.5625 163.019531 42.5625 157.113281 44.257812 L 155.878906 44.613281 C 155.71875 50.207031 154.867188 54.292969 153.324219 56.882812 C 151.816406 59.488281 149.472656 61.640625 146.269531 63.289062 C 143.066406 64.941406 139.574219 65.777344 135.796875 65.777344 C 132.253906 65.777344 129.386719 64.773438 127.1875 62.742188 C 124.984375 60.707031 123.886719 58.246094 123.886719 55.328125 C 123.886719 52.527344 124.820312 50.351562 126.683594 48.796875 C 128.550781 47.21875 130.511719 46.167969 132.566406 45.640625 C 134.625 45.09375 138.332031 44.253906 143.6875 43.105469 C 149.019531 41.957031 153.109375 40.882812 155.90625 39.855469 L 155.90625 40.058594 C 163.269531 37.949219 169.566406 35.65625 174.675781 33.132812 Z M 174.675781 33.132812 " fill-opacity="1" fill-rule="evenodd"/></g><g clip-path="url(#790104ab51)"><path fill="#2e14a3" d="M 155.429688 23.855469 C 161.226562 22.308594 167.085938 20.574219 172.675781 18.402344 L 173.476562 18.089844 C 173.015625 16.136719 172.417969 14.375 171.691406 12.804688 C 169.707031 8.5 166.308594 5.367188 161.503906 3.382812 C 156.695312 1.398438 150.097656 0.394531 141.679688 0.394531 C 134.144531 0.394531 127.878906 1.421875 122.832031 3.480469 C 117.785156 5.535156 114.078125 8.144531 111.6875 11.324219 C 109.296875 14.503906 108.125 17.78125 108.125 21.128906 C 108.125 23.28125 108.890625 25.050781 110.46875 26.414062 C 112.023438 27.800781 113.886719 28.496094 116.042969 28.496094 C 118.410156 28.496094 119.964844 28.0625 120.703125 27.203125 C 121.421875 26.34375 122.664062 24.546875 124.410156 21.847656 C 126.15625 19.121094 128.261719 17.109375 130.722656 15.746094 C 133.164062 14.382812 136.824219 13.714844 141.675781 13.714844 C 147.34375 13.714844 151.050781 14.886719 152.871094 17.253906 C 154.082031 18.835938 154.933594 21.039062 155.429688 23.859375 Z M 155.429688 23.855469 " fill-opacity="1" fill-rule="evenodd"/></g><g fill="#ff6600" fill-opacity="1"><g transform="translate(64.214497, 98.800788)"><g><path d="M 6.625 0.171875 C 5.5 0.171875 4.507812 -0.046875 3.65625 -0.484375 C 2.8125 -0.921875 2.160156 -1.535156 1.703125 -2.328125 C 1.242188 -3.117188 1.015625 -4.03125 1.015625 -5.0625 L 1.015625 -10.046875 C 1.015625 -11.078125 1.242188 -11.988281 1.703125 -12.78125 C 2.160156 -13.570312 2.8125 -14.179688 3.65625 -14.609375 C 4.507812 -15.046875 5.5 -15.265625 6.625 -15.265625 C 7.726562 -15.265625 8.695312 -15.054688 9.53125 -14.640625 C 10.375 -14.234375 11.03125 -13.648438 11.5 -12.890625 C 11.96875 -12.140625 12.203125 -11.269531 12.203125 -10.28125 C 12.203125 -10.15625 12.085938 -10.078125 11.859375 -10.046875 L 9.546875 -9.890625 L 9.46875 -9.890625 C 9.269531 -9.890625 9.171875 -9.925781 9.171875 -10 L 9.171875 -10.140625 C 9.171875 -10.898438 8.9375 -11.507812 8.46875 -11.96875 C 8 -12.425781 7.382812 -12.65625 6.625 -12.65625 C 5.84375 -12.65625 5.21875 -12.425781 4.75 -11.96875 C 4.28125 -11.507812 4.046875 -10.898438 4.046875 -10.140625 L 4.046875 -4.9375 C 4.046875 -4.1875 4.28125 -3.582031 4.75 -3.125 C 5.21875 -2.664062 5.84375 -2.4375 6.625 -2.4375 C 7.382812 -2.4375 8 -2.664062 8.46875 -3.125 C 8.9375 -3.582031 9.171875 -4.1875 9.171875 -4.9375 C 9.171875 -5.007812 9.203125 -5.070312 9.265625 -5.125 C 9.328125 -5.175781 9.414062 -5.191406 9.53125 -5.171875 L 11.84375 -5.0625 C 12.082031 -5.039062 12.203125 -5.003906 12.203125 -4.953125 L 12.203125 -4.859375 C 12.203125 -3.859375 11.96875 -2.976562 11.5 -2.21875 C 11.03125 -1.457031 10.375 -0.867188 9.53125 -0.453125 C 8.695312 -0.0351562 7.726562 0.171875 6.625 0.171875 Z M 6.625 0.171875 "/></g></g></g><g fill="#ff6600" fill-opacity="1"><g transform="translate(87.0235, 98.800788)"><g><path d="M 9.6875 0 C 9.5 0 9.351562 -0.09375 9.25 -0.28125 L 6.59375 -6.140625 C 6.570312 -6.210938 6.523438 -6.25 6.453125 -6.25 L 4.484375 -6.25 C 4.398438 -6.25 4.359375 -6.207031 4.359375 -6.125 L 4.359375 -0.359375 C 4.359375 -0.117188 4.234375 0 3.984375 0 L 1.6875 0 C 1.4375 0 1.3125 -0.117188 1.3125 -0.359375 L 1.3125 -14.75 C 1.3125 -14.988281 1.4375 -15.109375 1.6875 -15.109375 L 7.734375 -15.109375 C 8.660156 -15.109375 9.472656 -14.914062 10.171875 -14.53125 C 10.867188 -14.15625 11.40625 -13.625 11.78125 -12.9375 C 12.164062 -12.25 12.359375 -11.457031 12.359375 -10.5625 C 12.359375 -9.582031 12.113281 -8.738281 11.625 -8.03125 C 11.132812 -7.332031 10.457031 -6.84375 9.59375 -6.5625 C 9.550781 -6.539062 9.519531 -6.507812 9.5 -6.46875 C 9.488281 -6.4375 9.5 -6.40625 9.53125 -6.375 L 12.375 -0.4375 C 12.414062 -0.375 12.4375 -0.304688 12.4375 -0.234375 C 12.4375 -0.160156 12.40625 -0.101562 12.34375 -0.0625 C 12.289062 -0.0195312 12.21875 0 12.125 0 Z M 4.484375 -12.484375 C 4.398438 -12.484375 4.359375 -12.441406 4.359375 -12.359375 L 4.359375 -8.734375 C 4.359375 -8.648438 4.398438 -8.609375 4.484375 -8.609375 L 7.28125 -8.609375 C 7.882812 -8.609375 8.378906 -8.78125 8.765625 -9.125 C 9.148438 -9.476562 9.34375 -9.941406 9.34375 -10.515625 C 9.34375 -11.097656 9.148438 -11.570312 8.765625 -11.9375 C 8.378906 -12.300781 7.882812 -12.484375 7.28125 -12.484375 Z M 4.484375 -12.484375 "/></g></g></g><g fill="#ff6600" fill-opacity="1"><g transform="translate(109.961838, 98.800788)"><g><path d="M 11.796875 -12.84375 C 11.796875 -12.601562 11.671875 -12.484375 11.421875 -12.484375 L 4.484375 -12.484375 C 4.398438 -12.484375 4.359375 -12.441406 4.359375 -12.359375 L 4.359375 -9.0625 C 4.359375 -8.96875 4.398438 -8.921875 4.484375 -8.921875 L 8.984375 -8.921875 C 9.234375 -8.921875 9.359375 -8.800781 9.359375 -8.5625 L 9.359375 -6.6875 C 9.359375 -6.4375 9.234375 -6.3125 8.984375 -6.3125 L 4.484375 -6.3125 C 4.398438 -6.3125 4.359375 -6.269531 4.359375 -6.1875 L 4.359375 -2.734375 C 4.359375 -2.648438 4.398438 -2.609375 4.484375 -2.609375 L 11.421875 -2.609375 C 11.671875 -2.609375 11.796875 -2.488281 11.796875 -2.25 L 11.796875 -0.359375 C 11.796875 -0.117188 11.671875 0 11.421875 0 L 1.6875 0 C 1.4375 0 1.3125 -0.117188 1.3125 -0.359375 L 1.3125 -14.734375 C 1.3125 -14.972656 1.4375 -15.09375 1.6875 -15.09375 L 11.421875 -15.09375 C 11.671875 -15.09375 11.796875 -14.972656 11.796875 -14.734375 Z M 11.796875 -12.84375 "/></g></g></g><g fill="#ff6600" fill-opacity="1"><g transform="translate(132.253527, 98.800788)"><g><path d="M 11.015625 0 C 10.816406 0 10.679688 -0.0976562 10.609375 -0.296875 L 10 -2.3125 C 9.988281 -2.382812 9.945312 -2.421875 9.875 -2.421875 L 4.59375 -2.421875 C 4.519531 -2.421875 4.476562 -2.382812 4.46875 -2.3125 L 3.859375 -0.296875 C 3.785156 -0.0976562 3.648438 0 3.453125 0 L 0.953125 0 C 0.816406 0 0.71875 -0.0351562 0.65625 -0.109375 C 0.601562 -0.191406 0.597656 -0.289062 0.640625 -0.40625 L 5.234375 -14.796875 C 5.304688 -14.992188 5.445312 -15.09375 5.65625 -15.09375 L 8.8125 -15.09375 C 9.019531 -15.09375 9.160156 -14.992188 9.234375 -14.796875 L 13.828125 -0.40625 C 13.835938 -0.375 13.84375 -0.332031 13.84375 -0.28125 C 13.84375 -0.195312 13.8125 -0.128906 13.75 -0.078125 C 13.695312 -0.0234375 13.617188 0 13.515625 0 Z M 5.21875 -4.921875 C 5.207031 -4.816406 5.242188 -4.765625 5.328125 -4.765625 L 9.140625 -4.765625 C 9.222656 -4.765625 9.257812 -4.816406 9.25 -4.921875 L 7.3125 -11.5 C 7.289062 -11.550781 7.265625 -11.578125 7.234375 -11.578125 C 7.203125 -11.578125 7.171875 -11.550781 7.140625 -11.5 Z M 5.21875 -4.921875 "/></g></g></g><g fill="#ff6600" fill-opacity="1"><g transform="translate(156.420508, 98.800788)"><g><path d="M 11.625 -15.09375 C 11.863281 -15.09375 11.984375 -14.972656 11.984375 -14.734375 L 11.984375 -12.828125 C 11.984375 -12.585938 11.863281 -12.46875 11.625 -12.46875 L 7.890625 -12.46875 C 7.804688 -12.46875 7.765625 -12.421875 7.765625 -12.328125 L 7.765625 -0.359375 C 7.765625 -0.117188 7.640625 0 7.390625 0 L 5.09375 0 C 4.84375 0 4.71875 -0.117188 4.71875 -0.359375 L 4.71875 -12.328125 C 4.71875 -12.421875 4.675781 -12.46875 4.59375 -12.46875 L 0.96875 -12.46875 C 0.726562 -12.46875 0.609375 -12.585938 0.609375 -12.828125 L 0.609375 -14.734375 C 0.609375 -14.972656 0.726562 -15.09375 0.96875 -15.09375 Z M 11.625 -15.09375 "/></g></g></g><g fill="#ff6600" fill-opacity="1"><g transform="translate(178.73374, 98.800788)"><g><path d="M 1.6875 0 C 1.4375 0 1.3125 -0.117188 1.3125 -0.359375 L 1.3125 -14.734375 C 1.3125 -14.972656 1.4375 -15.09375 1.6875 -15.09375 L 3.984375 -15.09375 C 4.234375 -15.09375 4.359375 -14.972656 4.359375 -14.734375 L 4.359375 -0.359375 C 4.359375 -0.117188 4.234375 0 3.984375 0 Z M 1.6875 0 "/></g></g></g><g fill="#ff6600" fill-opacity="1"><g transform="translate(194.106258, 98.800788)"><g><path d="M 5.4375 0 C 5.226562 0 5.09375 -0.0976562 5.03125 -0.296875 L 0.640625 -14.6875 C 0.628906 -14.71875 0.625 -14.757812 0.625 -14.8125 C 0.625 -15 0.734375 -15.09375 0.953125 -15.09375 L 3.453125 -15.09375 C 3.648438 -15.09375 3.785156 -14.992188 3.859375 -14.796875 L 6.6875 -4.40625 C 6.695312 -4.34375 6.722656 -4.3125 6.765625 -4.3125 C 6.804688 -4.3125 6.835938 -4.34375 6.859375 -4.40625 L 9.640625 -14.765625 C 9.710938 -14.984375 9.847656 -15.09375 10.046875 -15.09375 L 12.484375 -15.09375 C 12.609375 -15.09375 12.695312 -15.050781 12.75 -14.96875 C 12.8125 -14.894531 12.820312 -14.800781 12.78125 -14.6875 L 8.34375 -0.296875 C 8.269531 -0.0976562 8.132812 0 7.9375 0 Z M 5.4375 0 "/></g></g></g><g fill="#ff6600" fill-opacity="1"><g transform="translate(217.217042, 98.800788)"><g><path d="M 6.6875 0.234375 C 5.5625 0.234375 4.570312 0.00390625 3.71875 -0.453125 C 2.863281 -0.910156 2.195312 -1.550781 1.71875 -2.375 C 1.25 -3.207031 1.015625 -4.160156 1.015625 -5.234375 L 1.015625 -9.859375 C 1.015625 -10.921875 1.25 -11.859375 1.71875 -12.671875 C 2.195312 -13.492188 2.863281 -14.128906 3.71875 -14.578125 C 4.570312 -15.035156 5.5625 -15.265625 6.6875 -15.265625 C 7.820312 -15.265625 8.816406 -15.035156 9.671875 -14.578125 C 10.523438 -14.128906 11.1875 -13.492188 11.65625 -12.671875 C 12.132812 -11.859375 12.375 -10.921875 12.375 -9.859375 L 12.375 -5.234375 C 12.375 -4.160156 12.132812 -3.207031 11.65625 -2.375 C 11.1875 -1.539062 10.523438 -0.894531 9.671875 -0.4375 C 8.816406 0.0078125 7.820312 0.234375 6.6875 0.234375 Z M 6.6875 -2.375 C 7.476562 -2.375 8.117188 -2.625 8.609375 -3.125 C 9.097656 -3.625 9.34375 -4.289062 9.34375 -5.125 L 9.34375 -9.875 C 9.34375 -10.707031 9.097656 -11.378906 8.609375 -11.890625 C 8.128906 -12.398438 7.488281 -12.65625 6.6875 -12.65625 C 5.894531 -12.65625 5.253906 -12.398438 4.765625 -11.890625 C 4.285156 -11.378906 4.046875 -10.707031 4.046875 -9.875 L 4.046875 -5.125 C 4.046875 -4.289062 4.285156 -3.625 4.765625 -3.125 C 5.253906 -2.625 5.894531 -2.375 6.6875 -2.375 Z M 6.6875 -2.375 "/></g></g></g></svg>