<svg id="visual" viewBox="0 0 1080 720" width="1080" height="720" xmlns="http://www.w3.org/2000/svg" xmlns:xlink="http://www.w3.org/1999/xlink" version="1.1"><rect x="0" y="0" width="1080" height="720" fill="#f5f5fa"></rect><defs><linearGradient id="grad1_0" x1="33.3%" y1="0%" x2="100%" y2="100%"><stop offset="20%" stop-color="#463c61" stop-opacity="1"></stop><stop offset="80%" stop-color="#463c61" stop-opacity="1"></stop></linearGradient></defs><defs><linearGradient id="grad1_1" x1="33.3%" y1="0%" x2="100%" y2="100%"><stop offset="20%" stop-color="#463c61" stop-opacity="1"></stop><stop offset="80%" stop-color="#9794ac" stop-opacity="1"></stop></linearGradient></defs><defs><linearGradient id="grad1_2" x1="33.3%" y1="0%" x2="100%" y2="100%"><stop offset="20%" stop-color="#f5f5fa" stop-opacity="1"></stop><stop offset="80%" stop-color="#9794ac" stop-opacity="1"></stop></linearGradient></defs><defs><linearGradient id="grad2_0" x1="0%" y1="0%" x2="66.7%" y2="100%"><stop offset="20%" stop-color="#463c61" stop-opacity="1"></stop><stop offset="80%" stop-color="#463c61" stop-opacity="1"></stop></linearGradient></defs><defs><linearGradient id="grad2_1" x1="0%" y1="0%" x2="66.7%" y2="100%"><stop offset="20%" stop-color="#9794ac" stop-opacity="1"></stop><stop offset="80%" stop-color="#463c61" stop-opacity="1"></stop></linearGradient></defs><defs><linearGradient id="grad2_2" x1="0%" y1="0%" x2="66.7%" y2="100%"><stop offset="20%" stop-color="#9794ac" stop-opacity="1"></stop><stop offset="80%" stop-color="#f5f5fa" stop-opacity="1"></stop></linearGradient></defs><g transform="translate(1080, 0)"><path d="M0 421.8C-38.2 398.1 -76.5 374.4 -117.7 362.4C-159 350.3 -203.2 349.8 -242.2 333.3C-281.1 316.8 -314.8 284.2 -341.3 248C-367.8 211.7 -387.2 171.7 -399.4 129.8C-411.7 87.8 -416.8 43.9 -421.8 0L0 0Z" fill="#c5c3d2"></path><path d="M0 281.2C-25.5 265.4 -51 249.6 -78.5 241.6C-106 233.5 -135.5 233.2 -161.4 222.2C-187.4 211.2 -209.8 189.5 -227.5 165.3C-245.2 141.1 -258.1 114.5 -266.3 86.5C-274.5 58.6 -277.8 29.3 -281.2 0L0 0Z" fill="#6d6786"></path><path d="M0 140.6C-12.7 132.7 -25.5 124.8 -39.2 120.8C-53 116.8 -67.7 116.6 -80.7 111.1C-93.7 105.6 -104.9 94.7 -113.8 82.7C-122.6 70.6 -129.1 57.2 -133.1 43.3C-137.2 29.3 -138.9 14.6 -140.6 0L0 0Z" fill="#463c61"></path></g><g transform="translate(0, 720)"><path d="M0 -421.8C42.5 -407.6 84.9 -393.4 121.4 -373.8C158 -354.1 188.6 -329 223.4 -307.4C258.1 -285.8 297.1 -267.7 329.3 -239.2C361.5 -210.8 386.9 -172 401.2 -130.4C415.5 -88.8 418.7 -44.4 421.8 0L0 0Z" fill="#c5c3d2"></path><path d="M0 -281.2C28.3 -271.8 56.6 -262.3 81 -249.2C105.3 -236.1 125.7 -219.4 148.9 -205C172.1 -190.5 198.1 -178.5 219.5 -159.5C241 -140.5 257.9 -114.6 267.5 -86.9C277 -59.2 279.1 -29.6 281.2 0L0 0Z" fill="#6d6786"></path><path d="M0 -140.6C14.2 -135.9 28.3 -131.1 40.5 -124.6C52.7 -118 62.9 -109.7 74.5 -102.5C86 -95.3 99 -89.2 109.8 -79.7C120.5 -70.3 129 -57.3 133.7 -43.5C138.5 -29.6 139.6 -14.8 140.6 0L0 0Z" fill="#463c61"></path></g></svg>